<?xml version="1.0" encoding="utf-8"?>
<!-- Generator: Adobe Illustrator 19.2.0, SVG Export Plug-In . SVG Version: 6.00 Build 0)  -->
<svg version="1.1" id="Capa_1" xmlns="http://www.w3.org/2000/svg" xmlns:xlink="http://www.w3.org/1999/xlink" x="0px" y="0px"
	 viewBox="0 0 235.3 115.3" style="enable-background:new 0 0 235.3 115.3;" xml:space="preserve">
<style type="text/css">
	.st0{fill:#2D2F77;}
	.st1{fill:#1865B0;}
	.st2{fill:#2A4387;}
	.st3{fill:#254589;}
	.st4{fill:#FFFFFF;}
</style>
<g>
	<g>
		<g>
			<g>
				<g>
					<g>
						<path class="st0" d="M183.2,5.7c-24.2,0-43.8,16.6-43.8,37.1s19.6,37.1,43.8,37.1s43.9-16.6,43.9-37.1S207.4,5.7,183.2,5.7z"
							/>
					</g>
				</g>
				<g>
					<g>
						<ellipse class="st1" cx="116.5" cy="42.4" rx="43.8" ry="37.1"/>
					</g>
				</g>
				<g>
					<g>
						<path class="st1" d="M49.5,5.1C25.3,5.1,5.7,21.8,5.7,42.3s19.6,37.1,43.9,37.1c24.2,0,43.8-16.6,43.8-37.1S73.7,5.1,49.5,5.1
							z"/>
					</g>
				</g>
			</g>
		</g>
		<g>
			<g>
				<path class="st2" d="M72,42.8c0,9.2,3.9,17.5,10.4,24c6.7-6.5,10.8-15.1,10.8-24.4c0-9.2-3.9-17.5-10.4-24
					C76,24.9,72,33.5,72,42.8z"/>
			</g>
		</g>
		<g>
			<g>
				<path class="st3" d="M139.2,42.8c0,9.2,3.9,17.5,10.4,24c6.7-6.5,10.8-15.1,10.8-24.4c0-9.2-3.9-17.5-10.4-24
					C143.2,24.9,139.2,33.4,139.2,42.8z"/>
			</g>
		</g>
		<g>
			<path class="st4" d="M30.2,62.4l7.9-37.5h12.8c2.8,0,4.7,0.1,5.8,0.3c1.8,0.3,3.4,0.8,4.7,1.5c1.3,0.8,2.3,1.8,2.9,3.1
				c0.7,1.3,1,2.7,1,4.2c0,2.1-0.6,3.9-1.7,5.4c-1.2,1.5-3,2.7-5.4,3.5c1.9,0.5,3.4,1.5,4.5,2.8c1.1,1.4,1.6,2.9,1.6,4.6
				c0,2.3-0.6,4.4-1.9,6.4c-1.3,2-3,3.5-5.3,4.4s-5.3,1.3-9.2,1.3H30.2z M39.2,56.3h7.4c3.1,0,5.2-0.2,6.3-0.6
				c1.1-0.4,1.9-1.1,2.6-2c0.6-0.9,1-1.9,1-2.9c0-1.2-0.5-2.3-1.4-3.1s-2.5-1.2-4.6-1.2h-9.2L39.2,56.3z M42.6,40h5.9
				c2.6,0,4.5-0.2,5.7-0.6c1.2-0.4,2-1,2.6-1.8c0.6-0.9,0.9-1.8,0.9-2.7c0-1-0.3-1.7-0.8-2.4c-0.5-0.6-1.3-1-2.3-1.2
				c-0.6-0.1-1.9-0.2-4.1-0.2h-6L42.6,40z"/>
		</g>
		<g>
			<path class="st4" d="M172.3,61.5h-7.7l7.9-37.5H189c2.9,0,5.1,0.3,6.7,0.9c1.6,0.6,2.9,1.7,3.9,3.2c1,1.6,1.5,3.5,1.5,5.7
				c0,3.2-1,5.8-2.9,7.9c-1.9,2.1-4.8,3.4-8.7,3.9c1,0.9,1.9,2.1,2.8,3.5c1.7,2.9,3.6,7.1,5.8,12.4h-8.3c-0.7-2.1-2-5.4-3.9-9.9
				c-1.1-2.4-2.2-4.1-3.4-4.9c-0.7-0.5-2-0.7-3.8-0.7h-3.1L172.3,61.5z M176.7,40.4h4.1c4.1,0,6.9-0.2,8.3-0.7
				c1.4-0.5,2.4-1.3,3.2-2.3c0.8-1.1,1.2-2.2,1.2-3.3c0-1.4-0.6-2.4-1.7-3.1c-0.7-0.4-2.2-0.6-4.4-0.6h-8.5L176.7,40.4z"/>
		</g>
		<g>
			<path class="st4" d="M98.4,62.2l7.9-37.5h12.8c2.8,0,4.7,0.1,5.8,0.3c1.8,0.3,3.4,0.8,4.7,1.5c1.3,0.8,2.3,1.8,2.9,3.1
				c0.7,1.3,1,2.7,1,4.2c0,2.1-0.6,3.9-1.7,5.4c-1.2,1.5-3,2.7-5.4,3.5c1.9,0.5,3.4,1.5,4.5,2.8c1.1,1.4,1.6,2.9,1.6,4.6
				c0,2.3-0.6,4.4-1.9,6.4c-1.3,2-3,3.5-5.3,4.4s-5.3,1.3-9.2,1.3H98.4z M107.4,56.1h7.4c3.1,0,5.2-0.2,6.3-0.6
				c1.1-0.4,1.9-1.1,2.6-2c0.6-0.9,1-1.9,1-2.9c0-1.2-0.5-2.3-1.4-3.1s-2.5-1.2-4.6-1.2h-9.2L107.4,56.1z M110.8,39.8h5.9
				c2.6,0,4.5-0.2,5.7-0.6c1.2-0.4,2-1,2.6-1.8c0.6-0.9,0.9-1.8,0.9-2.7c0-1-0.3-1.7-0.8-2.4c-0.5-0.6-1.3-1-2.3-1.2
				c-0.6-0.1-1.9-0.2-4.1-0.2h-6L110.8,39.8z"/>
		</g>
	</g>
</g>
</svg>
