<?xml version="1.0" encoding="utf-8"?>
<!-- Generator: Adobe Illustrator 19.2.0, SVG Export Plug-In . SVG Version: 6.00 Build 0)  -->
<svg version="1.1" id="icons" xmlns="http://www.w3.org/2000/svg" xmlns:xlink="http://www.w3.org/1999/xlink" x="0px" y="0px"
	 viewBox="0 0 24 24" style="enable-background:new 0 0 24 24;" xml:space="preserve">
<style type="text/css">
	.st0{fill:#BFBFBF;}
</style>
<path class="st0" d="M21.8,8.7c-0.4-0.4-0.8-0.6-1.3-0.6h-1.9V4.4c0-1-0.4-1.9-1.1-2.7c-0.8-0.8-1.6-1.1-2.7-1.1H9
	C8,0.6,7.1,1,6.3,1.7S5.2,3.3,5.2,4.4v3.8H3.3c-0.5,0-1,0.2-1.3,0.6c-0.4,0.4-0.6,0.8-0.6,1.3v11.5c0,0.5,0.2,1,0.6,1.3
	c0.4,0.4,0.8,0.6,1.3,0.6h17.2c0.5,0,1-0.2,1.3-0.6c0.4-0.4,0.6-0.8,0.6-1.3V10.1C22.4,9.6,22.2,9.1,21.8,8.7z M11.9,20.5
	c-0.7,0-1.3-1.3-1.3-2.8s0.6-2.8,1.3-2.8s1.3,1.3,1.3,2.8S12.6,20.5,11.9,20.5z M14.8,8.2H9V5.3C9,5,9.1,4.8,9.3,4.6
	C9.5,4.5,9.7,4.4,10,4.4h3.8c0.3,0,0.5,0.1,0.7,0.3c0.2,0.2,0.3,0.4,0.3,0.7V8.2z"/>
</svg>
